<svg width="307" height="449" viewBox="0 0 307 449" fill="none" xmlns="http://www.w3.org/2000/svg">
<path d="M283.029 284.844C286.539 288.332 292.123 290.665 294.477 291.395C296.83 292.125 300.946 291.947 300.237 284.483C299.528 277.018 305.06 272.88 306.588 251.716C308.497 225.26 298.807 187.397 297.59 185.09C296.374 182.783 292.787 155.809 293.572 151.955C294.357 148.102 294.86 78.9013 294.65 75.6592C294.441 72.4171 292.756 41.1771 292.454 27.7109C292.152 14.2446 283.738 5.08427 279.355 3.63534C224.043 -19.4265 100.362 73.5154 61.2789 105.89C20.8354 139.391 -3.32975 189.641 0.372294 240.877C4.08547 292.268 36.2456 318.158 42.9361 321.629C49.6266 325.101 73.5481 327.564 80.677 327.817C87.8059 328.069 86.708 331.588 85.7626 339.964C84.8172 348.341 92.4496 389.366 98.3625 414.804C104.275 440.243 113.791 446.401 116.684 447.151C119.578 447.9 184.073 449.859 195.273 445.081C206.473 440.302 217.711 443.611 223.498 445.109C228.128 446.308 258.942 445.933 273.77 445.595C278.407 445.975 287.132 445.744 284.936 441.785C282.74 437.826 251.148 424.74 249.238 423.702C247.328 422.664 247.598 420.539 244.515 419.654C241.432 418.768 228.556 418.334 222.503 418.228C222.503 418.228 145.723 410.658 142.565 403.431C139.407 396.203 133.341 338.377 141.497 341.937C158.431 349.329 182.638 343.717 187.834 343.577C193.03 343.438 205.142 358.745 209.98 359.563C214.817 360.381 217.547 356.597 218.389 351.128C219.232 345.659 226.772 334.282 229.029 334.685C231.286 335.088 237.824 333.702 238.899 330.829C239.974 327.956 234.32 313.525 238.647 310.443C242.974 307.362 248.55 287.316 239.736 270.508C230.922 253.7 223.078 246.732 205.665 244.303C188.251 241.874 167.684 258.215 158.811 261.394C149.939 264.573 139.166 259.31 127.387 254.753C97.9533 243.037 94.1639 230.936 88.293 222.641C83.5963 216.006 81.1996 206.11 80.5884 201.991C79.7611 197.865 80.2841 188.59 88.9942 184.499C99.8818 179.386 107.255 181.911 113.076 182.44C118.897 182.97 128.641 182.668 141.172 176.966C153.702 171.264 159.89 161.456 161.624 158.283C163.359 155.109 169.496 137.537 172.756 127.949C176.015 118.36 187.722 108.424 191.458 103.705C195.194 98.9853 208.51 89.4296 212.78 87.9635C216.195 86.7906 230.689 76.9534 232.031 75.7069C233.373 74.4604 239.236 64.6412 237.528 76.2249C235.543 89.6909 240.769 103.833 241.836 110.34C242.904 116.847 247.642 129.629 253.422 140.507C258.045 149.21 261.506 165.699 262.659 172.856C266.715 186.585 259.659 193.451 259.659 193.451C256.304 196.567 251.728 198.573 249.942 202.163C247.815 206.439 247.611 213.014 250.075 216.723C252.54 220.433 260.673 228.958 264.432 232.757C271.398 241.284 272.267 258.911 274.169 269.328C275.421 276.188 279.518 281.356 283.029 284.844Z" fill="white"/>
</svg>
