<svg width="1971" height="1971" viewBox="0 0 1971 1971" fill="none" xmlns="http://www.w3.org/2000/svg">
<circle cx="985.5" cy="985.5" r="985.5" fill="white"/>
<path d="M1287.92 1131.05C1296.15 1139.22 1309.24 1144.69 1314.75 1146.4C1320.27 1148.11 1329.91 1147.7 1328.25 1130.2C1326.59 1112.71 1339.56 1103.01 1343.14 1053.4C1347.61 991.396 1324.9 902.652 1322.05 897.244C1319.2 891.837 1310.79 828.616 1312.63 819.584C1314.47 810.552 1315.65 648.36 1315.16 640.761C1314.67 633.162 1310.72 559.942 1310.01 528.38C1309.3 496.817 1289.58 475.347 1279.31 471.951C1149.67 417.899 859.785 635.736 768.183 711.615C673.391 790.136 616.753 907.911 625.43 1028C634.133 1148.45 709.51 1209.13 725.191 1217.27C740.872 1225.4 796.939 1231.18 813.648 1231.77C830.357 1232.36 827.783 1240.61 825.568 1260.24C823.352 1279.87 841.241 1376.03 855.099 1435.65C868.958 1495.27 891.26 1509.71 898.042 1511.46C904.823 1513.22 1055.99 1517.81 1082.24 1506.61C1108.49 1495.41 1134.83 1503.17 1148.39 1506.68C1159.24 1509.49 1231.46 1508.61 1266.22 1507.82C1277.09 1508.71 1297.54 1508.17 1292.39 1498.89C1287.24 1489.61 1213.2 1458.94 1208.72 1456.5C1204.25 1454.07 1204.88 1449.09 1197.65 1447.01C1190.42 1444.94 1160.25 1443.92 1146.06 1443.67C1146.06 1443.67 966.102 1425.93 958.701 1408.99C951.299 1392.05 937.081 1256.52 956.198 1264.86C995.888 1282.19 1052.63 1269.03 1064.8 1268.71C1076.98 1268.38 1105.37 1304.26 1116.71 1306.18C1128.05 1308.09 1134.44 1299.22 1136.42 1286.4C1138.39 1273.59 1156.07 1246.92 1161.36 1247.87C1166.65 1248.81 1181.97 1245.56 1184.49 1238.83C1187.01 1232.09 1173.76 1198.27 1183.9 1191.05C1194.04 1183.83 1207.11 1136.84 1186.45 1097.45C1165.79 1058.05 1147.41 1041.72 1106.59 1036.03C1065.78 1030.34 1017.57 1068.63 996.779 1076.09C975.984 1083.54 950.734 1071.2 923.128 1060.52C854.14 1033.06 845.258 1004.7 831.498 985.258C820.49 969.706 814.873 946.511 813.44 936.858C811.501 927.187 812.727 905.447 833.142 895.86C858.66 883.875 875.94 889.793 889.584 891.035C903.228 892.276 926.066 891.568 955.436 878.203C984.805 864.839 999.307 841.852 1003.37 834.414C1007.44 826.976 1021.82 785.789 1029.46 763.317C1037.1 740.844 1064.54 717.556 1073.3 706.494C1082.05 695.433 1113.26 673.036 1123.27 669.6C1131.28 666.851 1165.25 643.794 1168.39 640.873C1171.54 637.951 1185.28 614.937 1181.28 642.087C1176.62 673.648 1188.87 706.794 1191.37 722.045C1193.88 737.296 1204.98 767.255 1218.53 792.752C1229.36 813.149 1237.48 851.797 1240.18 868.571C1249.68 900.748 1233.15 916.841 1233.15 916.841C1225.28 924.143 1214.56 928.846 1210.37 937.262C1205.39 947.283 1204.91 962.692 1210.68 971.387C1216.46 980.082 1235.52 1000.06 1244.33 1008.97C1260.66 1028.95 1262.7 1070.27 1267.15 1094.68C1270.09 1110.76 1279.69 1122.87 1287.92 1131.05Z" fill="black"/>
</svg>
